<svg xmlns="http://www.w3.org/2000/svg" viewBox="0 0 120 120" width="120" height="120">
  <defs>
    <linearGradient id="tail-gradient" x1="12" y1="12" x2="108" y2="92" gradientUnits="userSpaceOnUse">
      <stop offset="0%" stop-color="#0A2540" />
      <stop offset="100%" stop-color="#1565C0" />
    </linearGradient>
  </defs>
  <rect x="0" y="0" width="120" height="120" rx="28" fill="#ffffff" />
  <path d="M60 92 C55 70 40 58 24 48 C10 40 4 26 12 12 C28 16 42 30 52 48 C55 54 58 60 60 66 C62 60 65 54 68 48 C78 30 92 16 108 12 C116 26 110 40 96 48 C80 58 65 70 60 92 Z" fill="url(#tail-gradient)" />
  <path d="M8 100c6.4-5 12.8-5 19.2 0s12.8 5 19.2 0 12.8-5 19.2 0 12.8 5 19.2 0 12.8-5 19.2 0" stroke="#ffffff" stroke-width="3.2" stroke-linecap="round" fill="none" opacity="0.9" />
  <path d="M8 108.5c6.4-5 12.8-5 19.2 0s12.8 5 19.2 0 12.8-5 19.2 0 12.8 5 19.2 0 12.8-5 19.2 0" stroke="#ffffff" stroke-width="3.2" stroke-linecap="round" fill="none" opacity="0.55" />
</svg>
